<?xml version="1.0" encoding="utf-8"?>
<!-- Generator: Adobe Illustrator 16.0.0, SVG Export Plug-In . SVG Version: 6.00 Build 0)  -->
<!DOCTYPE svg PUBLIC "-//W3C//DTD SVG 1.1//EN" "http://www.w3.org/Graphics/SVG/1.1/DTD/svg11.dtd">
<svg version="1.1" xmlns="http://www.w3.org/2000/svg" xmlns:xlink="http://www.w3.org/1999/xlink" x="0px" y="0px" width="100px"
	 height="100px" viewBox="0 0 100 100" enable-background="new 0 0 100 100" xml:space="preserve">
<g id="Layer_1">
</g>
<g id="economy">
	<path fill="#010101" d="M100,49.991C100,77.604,77.604,100,49.993,100C22.396,100,0,77.604,0,49.991C0,22.396,22.396,0,49.993,0
		C77.607,0,100,22.396,100,49.991L100,49.991z M25.846,75.849h54.532v-5.155H25.846v-44.02h-5.158v49.175H25.846 M36.877,55.916
		c-2.351-0.769-4.859,0.503-5.613,2.854c-0.767,2.35,0.5,4.854,2.854,5.625c2.353,0.768,4.857-0.517,5.624-2.869
		c0.486-1.505,0.157-3.166-0.924-4.341l2.478-3.76l10.923,11.234l21.518-7.586c1.378,2.022,4.167,2.558,6.205,1.146
		c2.019-1.396,2.536-4.171,1.126-6.192c-1.381-2.038-4.167-2.539-6.174-1.16c-1.317,0.909-2.068,2.431-1.943,4.012l-20.105,7.099
		l-10.266-10.56l3.528-5.407c1.581,0.518,3.336,0.124,4.509-1.05l6.503,3.805c-0.655,2.383,0.739,4.843,3.105,5.487
		c2.399,0.657,4.845-0.737,5.485-3.104c0.41-1.379,0.108-2.821-0.782-3.947l8.666-11.535c2.287,0.924,4.903-0.188,5.813-2.475
		c0.906-2.29-0.188-4.89-2.477-5.799c-2.304-0.926-4.903,0.186-5.797,2.475c-0.61,1.474-0.359,3.166,0.626,4.42l-8.665,11.533
		c-1.646-0.673-3.526-0.298-4.796,0.956l-6.503-3.823c0.643-2.381-0.752-4.842-3.122-5.486c-2.395-0.658-4.84,0.754-5.482,3.119
		c-0.409,1.474-0.045,3.041,0.987,4.152l-3.261,4.968l-3.932-4.075c1.256-2.1,0.564-4.859-1.568-6.113
		c-2.116-1.252-4.856-0.563-6.11,1.552c-1.255,2.148-0.582,4.858,1.555,6.127c1.36,0.814,3.07,0.829,4.448,0.063l4.325,4.452
		L36.877,55.916z"/>
</g>
<g id="immigrants">
</g>
<g id="environment">
</g>
<g id="native-peoples">
</g>
<g id="health">
</g>
</svg>
