<?xml version="1.0" encoding="utf-8"?>
<!-- Generator: Adobe Illustrator 16.0.0, SVG Export Plug-In . SVG Version: 6.00 Build 0)  -->
<!DOCTYPE svg PUBLIC "-//W3C//DTD SVG 1.1//EN" "http://www.w3.org/Graphics/SVG/1.1/DTD/svg11.dtd">
<svg version="1.1" xmlns="http://www.w3.org/2000/svg" xmlns:xlink="http://www.w3.org/1999/xlink" x="0px" y="0px" width="100px"
	 height="100px" viewBox="0 0 100 100" enable-background="new 0 0 100 100" xml:space="preserve">
<g id="Layer_1">
</g>
<g id="economy">
</g>
<g id="immigrants">
</g>
<g id="environment">
</g>
<g id="nativeAmericans">
</g>
<g id="health">
</g>
<g id="lgbt">
</g>
<g id="refugees">
</g>
<g id="security">
	<g>
		<path fill="#010101" d="M50,38.004c-7.709,0-13.982,6.27-13.982,13.979c0,7.708,6.273,13.977,13.982,13.977
			c7.708,0,13.977-6.269,13.977-13.977C63.977,44.274,57.708,38.004,50,38.004z M50,60.369c-4.625,0-8.388-3.763-8.388-8.386
			c0-4.625,3.763-8.387,8.388-8.387c4.623,0,8.385,3.762,8.385,8.387C58.385,56.606,54.623,60.369,50,60.369z"/>
		<path fill="#010101" d="M50,0C22.385,0,0,22.388,0,50c0,27.613,22.385,50,50,50c27.613,0,50-22.387,50-50
			C100,22.388,77.613,0,50,0z M75.025,38.979c0.158,0.764,0.427,1.552,0.822,2.413c0.748,1.639,2.007,5.62,2.104,13.976
			c0.009,1.053-0.089,2.09-0.29,3.091c-1.451,6.927-5.769,12.666-11.873,15.866l-1.913,1.001
			c-5.415,2.405-10.696,5.978-11.082,7.463c-0.003,0.069-0.005,0.14-0.013,0.211c-0.098,1.451-1.305,2.567-2.787,2.567
			c-1.526,0-2.762-1.262-2.791-2.778c-0.388-1.491-5.663-5.064-10.913-7.382l-2.081-1.082c-6.104-3.2-10.423-8.939-11.845-15.747
			c-0.23-1.12-0.328-2.157-0.319-3.208c0.1-8.358,1.356-12.339,2.102-13.972c0.4-0.867,0.668-1.655,0.826-2.415
			c1.107-5.34-2.106-9.167-2.245-9.33c-0.871-1.019-0.911-2.527-0.076-3.576l5.241-6.589c0.583-0.73,1.463-1.125,2.422-1.047
			c0.93,0.083,1.763,0.618,2.213,1.438c0.041,0.062,1.918,2.947,8.035,2.947c5.667,0,6.764-2.441,6.808-2.545
			c0.461-1.085,1.447-1.809,2.738-1.775c1.173,0.057,2.206,0.77,2.557,1.887c0.01,0,1.117,2.433,6.77,2.433
			c6.134,0,8.021-2.918,8.035-2.947c0.45-0.82,1.284-1.355,2.214-1.438c0.959-0.077,1.839,0.317,2.422,1.047l5.24,6.589
			c0.846,1.063,0.805,2.575-0.087,3.593C77.132,29.816,73.919,33.643,75.025,38.979z"/>
	</g>
</g>
</svg>
