<?xml version="1.0" encoding="utf-8"?>
<!-- Generator: Adobe Illustrator 16.0.0, SVG Export Plug-In . SVG Version: 6.00 Build 0)  -->
<!DOCTYPE svg PUBLIC "-//W3C//DTD SVG 1.1//EN" "http://www.w3.org/Graphics/SVG/1.1/DTD/svg11.dtd">
<svg version="1.1" xmlns="http://www.w3.org/2000/svg" xmlns:xlink="http://www.w3.org/1999/xlink" x="0px" y="0px" width="100px"
	 height="100px" viewBox="0 0 100 100" enable-background="new 0 0 100 100" xml:space="preserve">
<g id="immigrants">
	<g>
		<path fill="#010101" d="M50-0.001c-27.614,0-50,22.388-50,50c0,27.615,22.386,50.002,50,50.002c27.615,0,50-22.387,50-50.002
			C100,22.386,77.615-0.001,50-0.001z M31.835,70.347h-3.293c-3.302,0-4.975,0.012-4.975-3.559c0-3.569,0.164-22.81,0-33.92
			c0-3.124,1.541-3.509,3.896-3.558c0.335-0.006,0.711,0,1.078,0h3.293V70.347z M64.85,70.347H35.15V29.31h6.583v-7.142
			c3.301-0.892,5.79-1.337,8.267-1.337c2.478,0,4.966,0.445,8.267,1.337c0.082,2.41,0,7.142,0,7.142h6.583V70.347z M76.434,66.788
			c0,3.57-1.954,3.559-4.976,3.559h-3.29V29.31h3.29c3.302,0,4.976-0.012,4.976,3.558C76.269,43.979,76.434,63.219,76.434,66.788z"
			/>
		<path fill="#010101" d="M45.052,25.013v4.296h9.899v-4.296c-1.652-0.535-3.299-0.797-4.951-0.797S46.701,24.479,45.052,25.013z"/>
	</g>
</g>
</svg>
