<?xml version="1.0" encoding="utf-8"?>
<!-- Generator: Adobe Illustrator 16.0.0, SVG Export Plug-In . SVG Version: 6.00 Build 0)  -->
<!DOCTYPE svg PUBLIC "-//W3C//DTD SVG 1.1//EN" "http://www.w3.org/Graphics/SVG/1.1/DTD/svg11.dtd">
<svg version="1.1" xmlns="http://www.w3.org/2000/svg" xmlns:xlink="http://www.w3.org/1999/xlink" x="0px" y="0px" width="100px"
	 height="100px" viewBox="0 0 100 100" enable-background="new 0 0 100 100" xml:space="preserve">
<g id="lgbt">
	<path fill="#010101" d="M50,0C22.385,0,0,22.387,0,50c0,27.613,22.385,50,50,50c27.613,0,50-22.387,50-50C100,22.387,77.613,0,50,0
		z M78.484,73.399c0,2.834-2.251,5.086-5.086,5.086H26.602c-2.835,0-5.086-2.252-5.086-5.086v-2.672h56.969V73.399z M78.484,68.69
		H21.516V60.85h56.969V68.69z M78.484,58.816H21.516V51.06h56.969V58.816z M78.484,49.023H21.516v-7.925h56.969V49.023z
		 M78.484,39.064H21.516v-7.757h56.969V39.064z M78.484,29.271H21.516v-2.67c0-2.836,2.251-5.087,5.086-5.087h46.797
		c2.835,0,5.086,2.251,5.086,5.087V29.271z"/>
</g>
</svg>
