<?xml version="1.0" encoding="utf-8"?>
<!-- Generator: Adobe Illustrator 16.0.0, SVG Export Plug-In . SVG Version: 6.00 Build 0)  -->
<!DOCTYPE svg PUBLIC "-//W3C//DTD SVG 1.1//EN" "http://www.w3.org/Graphics/SVG/1.1/DTD/svg11.dtd">
<svg version="1.1" xmlns="http://www.w3.org/2000/svg" xmlns:xlink="http://www.w3.org/1999/xlink" x="0px" y="0px" width="100px"
	 height="100px" viewBox="0 0 100 100" enable-background="new 0 0 100 100" xml:space="preserve">
<g id="Layer_1">
</g>
<g id="economy">
</g>
<g id="immigrants">
</g>
<g id="environment">
</g>
<g id="nativeAmericans">
</g>
<g id="health">
</g>
<g id="lgbt">
</g>
<g id="refugees">
	<g>
		<path fill="#010101" d="M50,0C22.385,0,0,22.388,0,50c0,27.613,22.385,50,50,50c27.613,0,50-22.387,50-50
			C100,22.388,77.613,0,50,0z M67.938,19.075c3.19,0,5.777,2.586,5.777,5.777c0,3.191-2.587,5.777-5.777,5.777
			c-3.189,0-5.776-2.586-5.776-5.777C62.161,21.661,64.748,19.075,67.938,19.075z M39.121,28.107c2.227,0,4.031,1.805,4.031,4.032
			s-1.805,4.032-4.031,4.032c-2.228,0-4.031-1.805-4.031-4.032S36.894,28.107,39.121,28.107z M77.619,47.867
			c-1.947,0.367-4.08,0.917-6.069,0.917c-1.145,0-2.162-0.761-2.481-1.866l-1.961-4.794L62.13,52.496l7.072,9.796
			c0.45,0.486,0.747,1.119,0.805,1.831l1.081,13.499c0.136,1.685-1.118,3.155-2.803,3.293c-0.084,0.006-0.165,0.01-0.246,0.01
			c-1.579,0-2.919-1.214-3.046-2.814l-1.005-12.533l-6.843-8.341l-3.616,12.383c-0.052,0.178-0.119,0.347-0.199,0.507
			c-0.489,1.036-1.542,1.754-2.764,1.754c-0.004,0-0.006,0-0.007,0L40.08,71.857c-1.082-0.002-2.029-0.568-2.57-1.417
			c-0.248-0.317-0.409-0.706-0.444-1.138l-0.01-0.125c-0.01-0.077-0.016-0.155-0.019-0.232l-0.672-8.39l-4.775-5.82l-2.523,8.641
			c-0.036,0.124-0.084,0.243-0.139,0.354c-0.342,0.724-1.077,1.223-1.93,1.223c-0.002,0-0.003,0-0.005,0l-7.312-0.015
			c-1.178-0.003-2.132-0.96-2.129-2.138c0.002-1.177,0.955-2.128,2.132-2.128c0.003,0,0.004,0,0.006,0l5.717,0.011l2.664-9.544
			c0.106-0.591,0.264-1.127,0.475-1.531l3.561-7.171l-3.231,0.629l-2.955,4.487c-1.314,1.935-4.383,0.326-2.794-1.951l3.352-4.936
			c0.267-0.391,0.659-0.646,1.088-0.744l8.516-2.916c1.489-0.512,3.671,0.496,4.26,1.953l2.449,6.065
			c0.474-0.021,1.133-0.118,1.849-0.215c0.097-0.215,0.219-0.437,0.378-0.664l4.804-7.072c0.382-0.562,0.944-0.926,1.56-1.067
			l12.2-4.179c2.137-0.731,5.264,0.712,6.108,2.8l3.509,8.691c2.535-0.107,8.755-1.771,9.226,0.895
			C82.742,46.835,79.854,47.446,77.619,47.867z"/>
		<path fill="#010101" d="M49.021,46.944c-0.722,1.063-1.815,1.377-2.758,1.179c-0.131,0.026-0.262,0.051-0.389,0.076
			c-1.358,0.255-2.846,0.64-4.233,0.64c-0.799,0-1.509-0.532-1.731-1.303l-1.368-3.346l-3.474,7.24l4.935,6.836
			c0.315,0.337,0.523,0.781,0.563,1.276l0.496,6.202l7.226,0.015l3.818-13.676c0.15-0.846,0.378-1.615,0.68-2.195l5.102-10.276
			l-4.631,0.902L49.021,46.944z"/>
	</g>
</g>
<g id="security">
</g>
</svg>
