<?xml version="1.0" encoding="utf-8"?>
<!-- Generator: Adobe Illustrator 16.0.0, SVG Export Plug-In . SVG Version: 6.00 Build 0)  -->
<!DOCTYPE svg PUBLIC "-//W3C//DTD SVG 1.1//EN" "http://www.w3.org/Graphics/SVG/1.1/DTD/svg11.dtd">
<svg version="1.1" xmlns="http://www.w3.org/2000/svg" xmlns:xlink="http://www.w3.org/1999/xlink" x="0px" y="0px" width="100px"
	 height="100px" viewBox="0 0 100 100" enable-background="new 0 0 100 100" xml:space="preserve">
<g id="Layer_1">
</g>
<g id="economy">
</g>
<g id="immigrants">
</g>
<g id="environment">
</g>
<g id="native-peoples">
	<g>
		<path fill="#010101" d="M48.006,41.552c-1.091-1.997-2.363-3.999-4.18-5.996c0.183,2.724,0.727,5.086,1.453,7.085
			c0.363,0.181,0.727,0.364,1.09,0.544c0.363-0.18,0.725-0.363,1.09-0.544c0-0.18,0.181-0.546,0.181-0.727
			C47.822,41.733,47.822,41.552,48.006,41.552z"/>
		<path fill="#010101" d="M45.097,31.558c1.818,2,3.452,3.999,4.726,5.996c1.271-1.997,2.906-4.18,4.726-5.996
			c0.36-0.363,0.724-0.727,1.087-0.91c-0.907-5.452-3.996-11.265-5.813-14.537c-1.816,3.272-4.906,9.268-5.813,14.537
			C44.37,30.831,44.733,31.194,45.097,31.558z"/>
		<path fill="#010101" d="M53.272,56.816c-0.361,0-0.725,0.181-1.088,0.36c-0.183,0.364-0.365,0.91-0.365,1.275
			c0.909,1.814,2.18,3.994,3.998,5.996c-0.183-2.729-0.727-5.089-1.453-7.088C53.999,57.177,53.638,56.997,53.272,56.816z"/>
		<path fill="#010101" d="M46.55,14.658c-7.267,0.548-13.991,3.455-19.443,7.998c3.636,0.907,9.271,2.724,13.811,5.63
			C42.007,23.016,44.733,17.747,46.55,14.658z"/>
		<path fill="#010101" d="M30.56,44.093c-5.452,0.909-11.266,3.999-14.538,5.818c3.272,1.816,9.269,4.906,14.538,5.813
			c0.183-0.36,0.543-0.727,0.909-1.09c1.999-1.816,3.999-3.452,5.996-4.723c-1.997-1.271-4.18-2.907-5.996-4.726
			C31.103,44.822,30.742,44.459,30.56,44.093z"/>
		<path fill="#010101" d="M51.819,41.552c0,0,0.183,0.181,0.183,0.363c0,0.181,0.183,0.546,0.183,0.727
			c0.363,0.181,0.727,0.364,1.088,0.544c0.365-0.18,0.727-0.544,1.275-0.544c0.724-1.999,1.27-4.362,1.453-7.085
			C54.182,37.371,52.729,39.555,51.819,41.552z"/>
		<path fill="#010101" d="M47.459,57.36c-0.365-0.184-0.727-0.363-1.09-0.544c-0.363,0.181-0.727,0.36-1.09,0.725
			c-0.727,1.999-1.271,4.361-1.453,7.088c1.816-2.183,3.089-4.18,3.996-6.177c0,0-0.183-0.183-0.183-0.365
			S47.459,57.541,47.459,57.36z"/>
		<path fill="#010101" d="M57.271,54.634c1.999,0.729,4.359,1.273,7.085,1.456c-1.997-1.819-3.996-3.272-5.993-4.18
			c-0.546,0.181-0.909,0.181-1.272,0.363c-0.186,0.361-0.363,0.727-0.546,1.088C56.728,53.727,56.905,54.088,57.271,54.634z"/>
		<path fill="#010101" d="M58.181,48.092c1.997-1.087,3.996-2.362,5.996-4.177c-2.727,0.178-5.089,0.727-7.086,1.453
			c-0.186,0.361-0.363,0.727-0.546,1.088c0.183,0.366,0.36,0.729,0.546,1.092C57.454,47.731,57.817,47.912,58.181,48.092z"/>
		<path fill="#010101" d="M85.073,46.639c-0.547-7.266-3.453-13.994-8.179-19.624c-0.909,3.633-2.724,9.268-5.633,13.808
			C76.534,42.096,81.986,44.822,85.073,46.639z"/>
		<path fill="#010101" d="M69.082,55.724c5.452-0.906,11.268-3.996,14.535-5.813c-3.268-1.819-9.266-4.909-14.535-5.818
			c-0.18,0.366-0.546,0.729-0.907,1.092c-1.999,1.819-3.998,3.455-5.998,4.726c2,1.271,4.18,2.906,5.998,4.723
			C68.536,54.997,68.719,55.363,69.082,55.724z"/>
		<path fill="#010101" d="M59.634,33.737c0,2.726-0.363,5.27-0.909,7.449c2.18-0.543,4.726-0.907,7.451-0.907
			c0.363,0,0.907,0,1.634,0.183c3.089-4.362,5.089-10.724,6.179-14.357c-3.636,1.092-9.995,3.089-14.354,6.179
			C59.634,32.831,59.634,33.194,59.634,33.737z"/>
		<path fill="#010101" d="M72.353,22.473c-5.27-4.36-11.992-7.267-19.441-7.996c1.816,3.27,4.543,8.539,5.813,13.809
			C63.267,25.562,69.082,23.563,72.353,22.473z"/>
		<path fill="#010101" d="M33.468,40.28c2.724,0,5.268,0.363,7.449,0.907c-0.546-2.36-0.727-4.903-0.727-7.629
			c0-0.546,0-0.912,0-1.456c-4.362-3.087-10.722-5.086-14.354-6.179c1.09,3.638,3.087,9.995,6.177,14.357
			C32.559,40.28,32.922,40.28,33.468,40.28z"/>
		<path fill="#010101" d="M54.548,68.265c-1.819-2-3.455-3.999-4.726-5.999c-1.273,2-2.729,3.999-4.726,5.999
			c-0.363,0.36-0.727,0.727-1.088,0.906c0.905,5.45,3.997,11.268,5.813,14.538c1.816-3.271,4.905-9.266,5.813-14.538
			C55.271,68.991,54.908,68.625,54.548,68.265z"/>
		<path fill="#010101" d="M53.092,85.162c7.269-0.546,13.991-3.453,19.443-7.995c-3.633-0.91-9.269-2.724-13.811-5.633
			C57.454,76.806,54.728,82.075,53.092,85.162z"/>
		<path fill="#010101" d="M65.993,59.723c-2.727,0-5.27-0.363-7.452-0.909c0.547,2.18,0.91,4.726,0.729,7.632
			c0,0.546,0,0.909,0,1.453c4.362,3.09,10.719,5.089,14.354,6.179c-1.09-3.633-3.087-9.994-6.179-14.354
			C66.902,59.723,66.539,59.723,65.993,59.723z"/>
		<path fill="#010101" d="M71.445,58.813c2.726,4.726,4.723,10.357,5.632,13.811C81.62,67.172,84.526,60.449,85.253,53
			C81.986,54.817,76.714,57.541,71.445,58.813z"/>
		<path fill="#010101" d="M49.993,0C22.393,0,0,22.396,0,49.993C0,77.604,22.393,100,49.993,100C77.607,100,100,77.604,100,49.993
			C100,22.396,77.609,0,49.993,0z M77.805,77.35c-0.184,0.178-0.363,0.363-0.544,0.544c-7.089,6.905-16.718,11.268-27.438,11.268
			c-10.722,0-20.536-4.362-27.622-11.448c-7.085-7.269-11.447-17.081-11.265-27.802c0-10.722,4.359-20.533,11.448-27.622
			c7.085-7.083,16.899-11.448,27.618-11.448c10.722,0,20.536,4.364,27.619,11.448c7.089,7.088,11.448,16.9,11.448,27.622
			C89.069,60.632,84.71,70.262,77.805,77.35z"/>
		<path fill="#010101" d="M42.373,47.548c0.178-0.363,0.36-0.727,0.544-1.092c-0.184-0.361-0.366-0.727-0.727-1.271
			c-2-0.727-4.362-1.271-7.089-1.453c2.002,1.816,3.999,3.272,5.998,4.179C41.644,47.731,42.007,47.731,42.373,47.548z"/>
		<path fill="#010101" d="M27.106,77.35c5.271,4.359,11.994,7.267,19.443,7.995c-1.634-3.27-4.359-8.539-5.633-13.811
			C36.191,74.443,30.56,76.257,27.106,77.35z"/>
		<path fill="#010101" d="M22.563,27.198c-4.542,5.447-7.448,12.175-8.176,19.624c3.271-1.819,8.539-4.543,13.809-5.815
			C25.471,36.283,23.471,30.648,22.563,27.198z"/>
		<path fill="#010101" d="M43.1,53.361c-0.183-0.361-0.366-0.727-0.549-1.088c-0.36-0.183-0.907-0.183-1.088-0.546
			c-1.999,1.09-3.998,2.36-5.995,4.18c2.724-0.184,5.086-0.727,7.083-1.454C42.733,54.088,42.917,53.727,43.1,53.361z"/>
		<path fill="#010101" d="M14.388,53.181c0.728,7.269,3.634,13.991,8.176,19.626c0.907-3.636,2.727-9.268,5.633-13.811
			C22.927,57.726,17.478,54.997,14.388,53.181z"/>
		<path fill="#010101" d="M40.01,66.082c0-2.727,0.361-5.271,0.907-7.449c-2.182,0.546-4.726,0.907-7.449,0.907
			c-0.546,0-0.909,0-1.636-0.181c-3.09,4.362-5.089,10.719-6.177,14.354c3.631-1.09,9.992-3.087,14.354-6.176
			C40.01,66.991,40.01,66.628,40.01,66.082z"/>
	</g>
</g>
<g id="health">
</g>
</svg>
