<?xml version="1.0" encoding="utf-8"?>
<!-- Generator: Adobe Illustrator 16.0.0, SVG Export Plug-In . SVG Version: 6.00 Build 0)  -->
<!DOCTYPE svg PUBLIC "-//W3C//DTD SVG 1.1//EN" "http://www.w3.org/Graphics/SVG/1.1/DTD/svg11.dtd">
<svg version="1.1" xmlns="http://www.w3.org/2000/svg" xmlns:xlink="http://www.w3.org/1999/xlink" x="0px" y="0px" width="100px"
	 height="100px" viewBox="0 0 100 100" enable-background="new 0 0 100 100" xml:space="preserve">
<g id="Layer_1">
</g>
<g id="economy">
</g>
<g id="immigrants">
</g>
<g id="environment">
	<path fill="#010101" d="M100,50.001c0,27.611-22.387,50.001-50,50.001c-27.616,0-50-22.39-50-50.001
		C0,22.384,22.384-0.001,50-0.001C77.613-0.001,100,22.384,100,50.001z"/>
	<g>
		<path fill="#FFFFFF" d="M64.727,62.894c9.392-9.388,11.594-40.267,11.594-40.267s-6.374,3.324-16.561,4.201
			c-9.603,0.822-18.497,2.177-23.707,7.388c-8.047,8.044-10.059,19.495-5.479,27.588c5.039-7.907,25.758-19.19,25.758-19.19
			C41.461,53.248,33.885,61.498,23.68,76.034l5.003,1.339c0,0,3.725-6.727,6.965-9.978C43.773,73.162,56.17,71.454,64.727,62.894z"
			/>
	</g>
</g>
<g id="native-peoples">
</g>
<g id="health">
</g>
</svg>
